<svg width="32" height="32" viewBox="0 0 32 32" fill="none" xmlns="http://www.w3.org/2000/svg">
  <rect x="4.68359" y="4.75195" width="22.6274" height="22.6274" fill="#FF5B00"/>
  <rect y="16" width="22.6274" height="22.6274" transform="rotate(-45 0 16)" fill="#FF5B00"/>
  <circle cx="15.9965" cy="16.0653" r="10.4086" fill="#FFFF00"/>
  <path d="M15.9965 7.39151C20.7793 7.39151 24.6703 11.2826 24.6703 16.0654C24.6703 20.8481 20.7793 24.7392 15.9965 24.7392C11.2137 24.7392 7.32266 20.8481 7.32266 16.0654C7.32266 11.2826 11.2137 7.39151 15.9965 7.39151ZM15.9965 5.65674C10.2483 5.65674 5.58789 10.3172 5.58789 16.0654C5.58789 21.8135 10.2483 26.474 15.9965 26.474C21.7447 26.474 26.4051 21.8135 26.4051 16.0654C26.4051 10.3172 21.7447 5.65674 15.9965 5.65674ZM20.7732 17.7489C19.4617 18.7855 18.0201 19.4239 15.9974 19.4239C13.9729 19.4239 12.5313 18.7855 11.2198 17.7489L10.7922 18.1766C11.7697 19.6685 13.5678 21.2697 15.9974 21.2697C18.426 21.2697 20.2233 19.6685 21.2008 18.1766L20.7732 17.7489ZM12.9607 12.5958C12.2425 12.5958 11.6596 13.1778 11.6596 13.8969C11.6596 14.616 12.2425 15.198 12.9607 15.198C13.6789 15.198 14.2617 14.616 14.2617 13.8969C14.2617 13.1778 13.6789 12.5958 12.9607 12.5958ZM19.0323 12.5958C18.3142 12.5958 17.7313 13.1778 17.7313 13.8969C17.7313 14.616 18.3142 15.198 19.0323 15.198C19.7505 15.198 20.3334 14.616 20.3334 13.8969C20.3334 13.1778 19.7505 12.5958 19.0323 12.5958Z" fill="#FF5B00"/>
  <path fill-rule="evenodd" clip-rule="evenodd" d="M15.9965 26.474C21.745 26.474 26.4051 21.8139 26.4051 16.0654C26.4051 10.3168 21.745 5.65674 15.9965 5.65674C10.248 5.65674 5.58789 10.3168 5.58789 16.0654C5.58789 21.8139 10.248 26.474 15.9965 26.474ZM15.997 23.3515C20.0209 23.3515 23.283 20.0894 23.283 16.0655C23.283 12.0415 20.0209 8.77944 15.997 8.77944C11.973 8.77944 8.71094 12.0415 8.71094 16.0655C8.71094 20.0894 11.973 23.3515 15.997 23.3515Z" fill="#FFFF00"/>
  </svg>
  